<svg width="33" height="30" viewBox="0 0 33 30" fill="none" xmlns="http://www.w3.org/2000/svg">
<path fill-rule="evenodd" clip-rule="evenodd" d="M16.9617 29.12C25.2671 29.12 32 22.8251 32 15.06C32 7.29488 25.2671 1 16.9617 1C8.65632 1 1.92346 7.29488 1.92346 15.06C1.92346 18.0543 2.92457 20.8299 4.63091 23.1103C4.81589 23.3575 4.88906 23.6728 4.81766 23.9732L4.33459 26.0056C4.15536 26.7596 4.86505 27.4221 5.60503 27.1915L7.63092 26.5601C7.9229 26.4691 8.23934 26.5185 8.49719 26.6829C10.9083 28.2208 13.8227 29.12 16.9617 29.12Z" fill="#FFCE5C"/>
<path d="M7.63092 26.5601L7.77969 27.0375L7.63092 26.5601ZM8.49719 26.6829L8.22831 27.1045L8.49719 26.6829ZM5.60503 27.1915L5.45626 26.7141L5.60503 27.1915ZM4.63091 23.1103L5.03124 22.8108L4.63091 23.1103ZM4.81766 23.9732L4.33122 23.8575L4.81766 23.9732ZM31.5 15.06C31.5 22.5178 25.0232 28.62 16.9617 28.62V29.62C25.511 29.62 32.5 23.1324 32.5 15.06H31.5ZM16.9617 1.5C25.0232 1.5 31.5 7.60217 31.5 15.06H32.5C32.5 6.98759 25.511 0.5 16.9617 0.5V1.5ZM2.42346 15.06C2.42346 7.60217 8.90025 1.5 16.9617 1.5V0.5C8.41239 0.5 1.42346 6.98759 1.42346 15.06H2.42346ZM5.03124 22.8108C3.38583 20.6118 2.42346 17.9401 2.42346 15.06H1.42346C1.42346 18.1684 2.4633 21.048 4.23057 23.4099L5.03124 22.8108ZM4.82104 26.1212L5.30411 24.0888L4.33122 23.8575L3.84815 25.8899L4.82104 26.1212ZM7.48216 26.0828L5.45626 26.7141L5.75379 27.6689L7.77969 27.0375L7.48216 26.0828ZM16.9617 28.62C13.9189 28.62 11.0977 27.7485 8.76607 26.2614L8.22831 27.1045C10.719 28.6931 13.7265 29.62 16.9617 29.62V28.62ZM7.77969 27.0375C7.92295 26.9928 8.08735 27.0146 8.22831 27.1045L8.76607 26.2614C8.39134 26.0224 7.92285 25.9454 7.48216 26.0828L7.77969 27.0375ZM3.84815 25.8899C3.5793 27.021 4.64382 28.0148 5.75379 27.6689L5.45626 26.7141C5.08627 26.8295 4.73143 26.4982 4.82104 26.1212L3.84815 25.8899ZM4.23057 23.4099C4.33234 23.5459 4.36619 23.7104 4.33122 23.8575L5.30411 24.0888C5.41194 23.6351 5.29944 23.1692 5.03124 22.8108L4.23057 23.4099Z" fill="black"/>
<path d="M14.9567 23.496C14.9567 23.496 15.4579 21.6213 17.463 21.6213C19.4681 21.6213 19.9694 23.496 19.9694 23.496" stroke="black" stroke-width="2" stroke-linecap="round"/>
<path d="M8.37134 16.6935H13.0005" stroke="black" stroke-width="2" stroke-linecap="round"/>
<path d="M20.9824 16.6935H25.6116" stroke="black" stroke-width="2" stroke-linecap="round"/>
<path d="M9.0215 10.2611C9.1978 12.1897 7.68216 14.1182 5.00912 14.1182C2.37725 14.1182 0.861915 12.1897 1.00993 10.2611C1.15572 8.36141 3.45491 4.12594 4.9417 2.61388C4.97958 2.57536 5.0387 2.57516 5.07686 2.6134C6.58496 4.12504 8.84783 8.3612 9.0215 10.2611Z" fill="#95F6FC" stroke="black"/>
</svg>
