<svg width="33" height="30" viewBox="0 0 33 30" fill="none" xmlns="http://www.w3.org/2000/svg">
<path fill-rule="evenodd" clip-rule="evenodd" d="M16.5 29.12C25.0604 29.12 32 22.8251 32 15.06C32 7.29488 25.0604 1 16.5 1C7.93959 1 1 7.29488 1 15.06C1 18.0515 2.02998 20.8249 3.7858 23.1041C3.97889 23.3548 4.05535 23.6782 3.98006 23.9855L3.48372 26.0116C3.29946 26.7637 4.00319 27.4308 4.74442 27.2067L6.90893 26.5522C7.19413 26.466 7.50187 26.513 7.75499 26.6702C10.2442 28.2158 13.2557 29.12 16.5 29.12Z" fill="#FFCE5C"/>
<path d="M6.90893 26.5522L7.05364 27.0308L6.90893 26.5522ZM7.75499 26.6702L8.01875 26.2454L7.75499 26.6702ZM3.48372 26.0116L2.99808 25.8926L3.48372 26.0116ZM4.74442 27.2067L4.59971 26.7281L4.74442 27.2067ZM3.7858 23.1041L4.1819 22.799L3.7858 23.1041ZM3.98006 23.9855L4.4657 24.1045L3.98006 23.9855ZM31.5 15.06C31.5 22.5042 24.8313 28.62 16.5 28.62V29.62C25.2896 29.62 32.5 23.146 32.5 15.06H31.5ZM16.5 1.5C24.8313 1.5 31.5 7.61578 31.5 15.06H32.5C32.5 6.97398 25.2896 0.5 16.5 0.5V1.5ZM1.5 15.06C1.5 7.61578 8.16874 1.5 16.5 1.5V0.5C7.71043 0.5 0.5 6.97398 0.5 15.06H1.5ZM4.1819 22.799C2.48868 20.601 1.5 17.9336 1.5 15.06H0.5C0.5 18.1695 1.57128 21.0487 3.38971 23.4092L4.1819 22.799ZM3.96936 26.1305L4.4657 24.1045L3.49442 23.8665L2.99808 25.8926L3.96936 26.1305ZM6.76422 26.0736L4.59971 26.7281L4.88913 27.6853L7.05364 27.0308L6.76422 26.0736ZM16.5 28.62C13.3489 28.62 10.4288 27.7419 8.01875 26.2454L7.49122 27.0949C10.0596 28.6898 13.1624 29.62 16.5 29.62V28.62ZM7.05364 27.0308C7.1937 26.9885 7.35332 27.0093 7.49122 27.0949L8.01875 26.2454C7.65043 26.0167 7.19455 25.9435 6.76422 26.0736L7.05364 27.0308ZM2.99808 25.8926C2.72169 27.0208 3.77729 28.0215 4.88913 27.6853L4.59971 26.7281C4.22909 26.8402 3.87723 26.5066 3.96936 26.1305L2.99808 25.8926ZM3.38971 23.4092C3.49596 23.5472 3.53129 23.716 3.49442 23.8665L4.4657 24.1045C4.5794 23.6404 4.46183 23.1624 4.1819 22.799L3.38971 23.4092Z" fill="black"/>
<path d="M13.3999 17.872C13.5721 18.8093 14.4332 20.684 16.4999 20.684C18.5666 20.684 19.4277 18.8093 19.5999 17.872" stroke="black" stroke-width="1.5" stroke-linecap="round"/>
<ellipse cx="10.3001" cy="13.1854" rx="2.06667" ry="1.87467" fill="black"/>
<ellipse cx="22.7" cy="13.1854" rx="2.06667" ry="1.87467" fill="black"/>
<g filter="url(#filter0_f_9_48)">
<ellipse cx="26.3166" cy="16.7004" rx="1.55" ry="0.703" fill="#FF8B72"/>
</g>
<g filter="url(#filter1_f_9_48)">
<ellipse cx="6.6833" cy="16.7004" rx="1.55" ry="0.703" fill="#FF8B72"/>
</g>
<defs>
<filter id="filter0_f_9_48" x="23.7666" y="14.9974" width="5.09998" height="3.40601" filterUnits="userSpaceOnUse" color-interpolation-filters="sRGB">
<feFlood flood-opacity="0" result="BackgroundImageFix"/>
<feBlend mode="normal" in="SourceGraphic" in2="BackgroundImageFix" result="shape"/>
<feGaussianBlur stdDeviation="0.5" result="effect1_foregroundBlur_9_48"/>
</filter>
<filter id="filter1_f_9_48" x="4.1333" y="14.9974" width="5.09998" height="3.40601" filterUnits="userSpaceOnUse" color-interpolation-filters="sRGB">
<feFlood flood-opacity="0" result="BackgroundImageFix"/>
<feBlend mode="normal" in="SourceGraphic" in2="BackgroundImageFix" result="shape"/>
<feGaussianBlur stdDeviation="0.5" result="effect1_foregroundBlur_9_48"/>
</filter>
</defs>
</svg>
