<svg width="36" height="30" viewBox="0 0 36 30" fill="none" xmlns="http://www.w3.org/2000/svg">
<path fill-rule="evenodd" clip-rule="evenodd" d="M17.9433 29.1229C25.7668 29.1229 32.1091 22.8274 32.1091 15.0615C32.1091 7.29553 25.7668 1 17.9433 1C10.1197 1 3.77747 7.29553 3.77747 15.0615C3.77747 18.0616 4.72399 20.8422 6.33678 23.1253C6.50641 23.3654 6.57336 23.6649 6.50913 23.9517L6.05182 25.9945C5.88207 26.7527 6.60411 27.4064 7.34179 27.1623L9.10253 26.5798C9.40812 26.4786 9.74238 26.5328 10.0095 26.7124C12.273 28.2341 15.0036 29.1229 17.9433 29.1229Z" fill="#FFCE5C"/>
<path d="M9.10253 26.5798L8.94547 26.1051L9.10253 26.5798ZM10.0095 26.7124L10.2885 26.2974L10.0095 26.7124ZM6.05182 25.9945L5.56389 25.8853L6.05182 25.9945ZM7.34179 27.1623L7.18473 26.6877L7.34179 27.1623ZM6.33678 23.1253L5.9284 23.4138L6.33678 23.1253ZM6.50913 23.9517L6.02121 23.8425L6.50913 23.9517ZM31.6091 15.0615C31.6091 22.5478 25.4942 28.6229 17.9433 28.6229V29.6229C26.0395 29.6229 32.6091 23.107 32.6091 15.0615H31.6091ZM17.9433 1.5C25.4942 1.5 31.6091 7.57515 31.6091 15.0615H32.6091C32.6091 7.01591 26.0395 0.5 17.9433 0.5V1.5ZM4.27747 15.0615C4.27747 7.57515 10.3924 1.5 17.9433 1.5V0.5C9.84706 0.5 3.27747 7.01591 3.27747 15.0615H4.27747ZM6.74516 22.8368C5.18988 20.6352 4.27747 17.9547 4.27747 15.0615H3.27747C3.27747 18.1685 4.2581 21.0493 5.9284 23.4138L6.74516 22.8368ZM6.53974 26.1037L6.99705 24.061L6.02121 23.8425L5.56389 25.8853L6.53974 26.1037ZM8.94547 26.1051L7.18473 26.6877L7.49886 27.637L9.2596 27.0544L8.94547 26.1051ZM17.9433 28.6229C15.1058 28.6229 12.4719 27.7653 10.2885 26.2974L9.73055 27.1273C12.0742 28.7029 14.9014 29.6229 17.9433 29.6229V28.6229ZM9.2596 27.0544C9.40927 27.0049 9.5835 27.0285 9.73055 27.1273L10.2885 26.2974C9.90126 26.0371 9.40697 25.9524 8.94547 26.1051L9.2596 27.0544ZM5.56389 25.8853C5.30927 27.0226 6.39234 28.0032 7.49886 27.637L7.18473 26.6877C6.81589 26.8097 6.45487 26.4829 6.53974 26.1037L5.56389 25.8853ZM5.9284 23.4138C6.02165 23.5458 6.05268 23.7019 6.02121 23.8425L6.99705 24.061C7.09404 23.6278 6.99117 23.185 6.74516 22.8368L5.9284 23.4138Z" fill="black"/>
<path d="M22.7176 9.3591C23.2844 8.94481 24.7455 8.3455 26.0551 9.26253" stroke="black" stroke-width="0.8" stroke-linecap="round"/>
<path d="M13.7258 9.3591C13.159 8.94481 11.6979 8.3455 10.3883 9.26253" stroke="black" stroke-width="0.8" stroke-linecap="round"/>
<path d="M21.7404 13.3481C22.1659 11.434 25.9462 10.6914 26.7908 11.5884C26.874 11.6768 26.8098 11.8063 26.6933 11.8408C25.737 12.1245 24.6953 12.7268 24.5541 13.1866C24.4375 13.5662 24.9688 14.1682 25.8023 14.7068C25.9603 14.8089 25.9159 15.0486 25.728 15.0578C23.7476 15.1545 21.61 13.9346 21.7404 13.3481Z" fill="black"/>
<path d="M14.6185 13.3481C14.193 11.434 10.4127 10.6914 9.56812 11.5884C9.48485 11.6768 9.54911 11.8063 9.66557 11.8408C10.6218 12.1245 11.6636 12.7268 11.8048 13.1866C11.9214 13.5662 11.3901 14.1682 10.5566 14.7068C10.3986 14.8089 10.443 15.0486 10.6309 15.0578C12.6113 15.1545 14.7489 13.9346 14.6185 13.3481Z" fill="black"/>
<path d="M26.1801 18.3018C26.9442 19.1865 25.3004 23.4977 18.4153 23.4977C11.5301 23.4977 9.78977 18.9659 10.6504 18.3018C11.5111 17.6376 15.5163 19.2791 18.4152 19.2791C21.3141 19.2791 25.4161 17.4171 26.1801 18.3018Z" fill="black" stroke="black" stroke-linecap="round"/>
<mask id="mask0_9_32" style="mask-type:alpha" maskUnits="userSpaceOnUse" x="10" y="17" width="17" height="7">
<path d="M26.1804 18.3025C27.2156 19.501 25.3006 23.4984 18.4155 23.4984C11.5303 23.4984 9.61532 19.1015 10.6506 18.3025C11.6859 17.5034 15.5166 19.2799 18.4155 19.2799C21.3144 19.2799 25.1451 17.1039 26.1804 18.3025Z" fill="black"/>
</mask>
<g mask="url(#mask0_9_32)">
<path d="M18.3715 21.506C14.9653 21.506 13.7589 23.1 13.5815 23.897H23.1614C22.984 23.1 21.7776 21.506 18.3715 21.506Z" fill="#D50B00"/>
<path d="M18.5102 20.3105C7.5439 20.3105 10.6772 18.1852 11.1994 17.1226H27.3874C27.3875 18.1852 28.4318 20.3105 18.5102 20.3105Z" fill="#F4F4F6"/>
</g>
<path d="M33.2478 15.7757C34.5452 16.7994 35.0323 18.6923 33.752 20.0656C32.4914 21.4177 30.5527 21.0819 29.4106 19.8916C28.2951 18.7291 26.7492 15.1518 26.4904 13.4952C26.4809 13.4344 26.5292 13.3822 26.591 13.3865C28.2842 13.5039 31.9804 14.7757 33.2478 15.7757Z" fill="#95F6FC" stroke="black"/>
<path d="M2.43258 15.7757C1.13517 16.7994 0.648128 18.6923 1.92841 20.0656C3.18898 21.4177 5.12773 21.0819 6.26982 19.8916C7.38532 18.7291 8.93119 15.1518 9.19002 13.4952C9.19951 13.4344 9.15121 13.3822 9.0894 13.3865C7.39619 13.5039 3.69997 14.7757 2.43258 15.7757Z" fill="#95F6FC" stroke="black"/>
</svg>
