<svg width="33" height="30" viewBox="0 0 33 30" fill="none" xmlns="http://www.w3.org/2000/svg">
<path fill-rule="evenodd" clip-rule="evenodd" d="M16.5 29.12C25.0604 29.12 32 22.8251 32 15.06C32 7.29488 25.0604 1 16.5 1C7.93959 1 1 7.29488 1 15.06C1 18.0515 2.02998 20.8249 3.78581 23.1041C3.9789 23.3548 4.05535 23.6782 3.98006 23.9855L3.48373 26.0115C3.29947 26.7637 4.0032 27.4308 4.74444 27.2067L6.90891 26.5522C7.1941 26.466 7.50185 26.513 7.75497 26.6701C10.2441 28.2158 13.2557 29.12 16.5 29.12Z" fill="#FFCE5C"/>
<path d="M6.90891 26.5522L7.05362 27.0308L6.90891 26.5522ZM7.75497 26.6701L8.01873 26.2454L7.75497 26.6701ZM4.74444 27.2067L4.59972 26.7281L4.74444 27.2067ZM3.78581 23.1041L4.1819 22.799L3.78581 23.1041ZM3.98006 23.9855L3.49443 23.8666L3.98006 23.9855ZM31.5 15.06C31.5 22.5042 24.8313 28.62 16.5 28.62V29.62C25.2896 29.62 32.5 23.146 32.5 15.06H31.5ZM16.5 1.5C24.8313 1.5 31.5 7.61578 31.5 15.06H32.5C32.5 6.97398 25.2896 0.5 16.5 0.5V1.5ZM1.5 15.06C1.5 7.61578 8.16874 1.5 16.5 1.5V0.5C7.71043 0.5 0.5 6.97398 0.5 15.06H1.5ZM4.1819 22.799C2.48868 20.601 1.5 17.9336 1.5 15.06H0.5C0.5 18.1695 1.57128 21.0487 3.38971 23.4093L4.1819 22.799ZM3.96937 26.1305L4.4657 24.1045L3.49443 23.8666L2.99809 25.8925L3.96937 26.1305ZM6.7642 26.0736L4.59972 26.7281L4.88915 27.6853L7.05362 27.0308L6.7642 26.0736ZM16.5 28.62C13.3489 28.62 10.4288 27.7419 8.01873 26.2454L7.4912 27.0949C10.0595 28.6898 13.1624 29.62 16.5 29.62V28.62ZM7.05362 27.0308C7.19368 26.9885 7.3533 27.0093 7.4912 27.0949L8.01873 26.2454C7.65041 26.0167 7.19453 25.9435 6.7642 26.0736L7.05362 27.0308ZM2.99809 25.8925C2.7217 27.0208 3.7773 28.0215 4.88915 27.6853L4.59972 26.7281C4.22911 26.8401 3.87724 26.5066 3.96937 26.1305L2.99809 25.8925ZM3.38971 23.4093C3.49596 23.5472 3.5313 23.716 3.49443 23.8666L4.4657 24.1045C4.5794 23.6404 4.46183 23.1624 4.1819 22.799L3.38971 23.4093Z" fill="black"/>
<g filter="url(#filter0_f_9_74)">
<ellipse cx="26.3167" cy="15.9973" rx="1.55" ry="0.937333" fill="#FF8B72"/>
</g>
<g filter="url(#filter1_f_9_74)">
<ellipse cx="6.6833" cy="15.9973" rx="1.55" ry="0.937333" fill="#FF8B72"/>
</g>
<path d="M7.19995 13.1854C7.19995 13.1854 7.71662 10.3734 9.78328 10.3734C11.85 10.3734 12.3666 13.1854 12.3666 13.1854" stroke="black" stroke-width="1.5" stroke-linecap="round"/>
<path d="M20.6333 13.1854C20.6333 13.1854 21.15 10.3734 23.2166 10.3734C25.2833 10.3734 25.8 13.1854 25.8 13.1854" stroke="black" stroke-width="1.5" stroke-linecap="round"/>
<path d="M16.4999 26.308C12.924 26.308 11.7973 21.1634 11.4469 17.5502C11.3765 16.825 12.1165 16.2715 12.8224 16.4523C13.9684 16.7457 15.4396 17.0284 16.4999 17.0284C17.5865 17.0284 19.0301 16.7316 20.1855 16.4304C20.8869 16.2476 21.5879 16.811 21.5031 17.5309C21.0772 21.145 20.0822 26.308 16.4999 26.308Z" fill="black"/>
<path d="M16.5001 25.8393C19.6001 25.8393 20.1168 22.5586 20.1168 22.09C20.1168 21.6213 17.969 21.1526 16.5001 21.1526C15.0312 21.1526 12.8834 21.6213 12.8834 22.09C12.8834 22.5586 13.4001 25.8393 16.5001 25.8393Z" fill="#D50B00"/>
<path d="M12.8834 17.872C15.4668 18.8093 17.5334 18.8093 20.1168 17.872" stroke="white" stroke-width="2" stroke-linecap="round"/>
<defs>
<filter id="filter0_f_9_74" x="23.7667" y="14.06" width="5.09998" height="3.87466" filterUnits="userSpaceOnUse" color-interpolation-filters="sRGB">
<feFlood flood-opacity="0" result="BackgroundImageFix"/>
<feBlend mode="normal" in="SourceGraphic" in2="BackgroundImageFix" result="shape"/>
<feGaussianBlur stdDeviation="0.5" result="effect1_foregroundBlur_9_74"/>
</filter>
<filter id="filter1_f_9_74" x="4.1333" y="14.06" width="5.09998" height="3.87466" filterUnits="userSpaceOnUse" color-interpolation-filters="sRGB">
<feFlood flood-opacity="0" result="BackgroundImageFix"/>
<feBlend mode="normal" in="SourceGraphic" in2="BackgroundImageFix" result="shape"/>
<feGaussianBlur stdDeviation="0.5" result="effect1_foregroundBlur_9_74"/>
</filter>
</defs>
</svg>
